<?xml version="1.0" standalone="no"?><!DOCTYPE svg PUBLIC "-//W3C//DTD SVG 1.1//EN" "http://www.w3.org/Graphics/SVG/1.1/DTD/svg11.dtd"><svg t="1597756490181" class="icon" viewBox="0 0 1024 1024" version="1.1" xmlns="http://www.w3.org/2000/svg" p-id="3162" xmlns:xlink="http://www.w3.org/1999/xlink" width="200" height="200"><defs><style type="text/css"></style></defs><path d="M512.22 250.51h278.19c14.28 0 29.25-1.21 43.47 0.56l-8-1.08a65.88 65.88 0 0 1 15.46 4.24l-7.19-3a65.23 65.23 0 0 1 9.82 5.26c0.72 0.48 1.4 1 2.14 1.48 2.75 1.67-5.29-4.55-3-2.31 1.39 1.36 3 2.55 4.33 3.93s2.34 2.56 3.52 3.83c2.8 3.05-2.46-3-2.28-3a14.63 14.63 0 0 1 1.5 2.13 63.62 63.62 0 0 1 5.62 10.36l-3-7.18a65.62 65.62 0 0 1 4.2 15.41l-1.08-8c1.57 12.64 0.56 25.86 0.56 38.54v36.25c0 15.73 13.83 30.79 30.07 30.07s30.07-13.21 30.07-30.07v-46.4-19.63A91 91 0 0 0 825 190.38H580.75c-22.5 0-45-0.43-67.53 0h-1c-15.73 0-30.8 13.83-30.07 30.06s13.21 30.07 30.07 30.07z" p-id="3163"></path><path d="M873.15 835.56H151.8a70.68 70.68 0 0 1-7.7-0.42l8 1.08a60.85 60.85 0 0 1-14.21-3.71l7.18 3a59.59 59.59 0 0 1-9.26-4.86c-6.1-4 4.52 4.1 0.85 0.85-1.3-1.15-2.61-2.27-3.84-3.5s-2.35-2.53-3.49-3.83c-3.25-3.67 4.81 6.95 0.84 0.85a58.8 58.8 0 0 1-4.85-9.27l3 7.18a60.59 60.59 0 0 1-3.71-14.21l1.07 8c-0.78-7.06-0.42-14.32-0.42-21.41V285.75c0-23.65-0.1-47.3 0-70.95a73.12 73.12 0 0 1 0.42-7.54l-1.07 8a60.59 60.59 0 0 1 3.71-14.21l-3 7.18a58.8 58.8 0 0 1 4.85-9.27c4-6.1-4.09 4.52-0.84 0.85 1.14-1.3 2.26-2.61 3.49-3.83s2.54-2.35 3.84-3.5c3.67-3.25-7 4.81-0.85 0.85a59.59 59.59 0 0 1 9.26-4.86l-7.18 3a60.85 60.85 0 0 1 14.21-3.71l-8 1.08c11.38-1.26 23.22-0.42 34.65-0.42h234.42c13.85 0 28.33-1.16 42.13 0.48l-8-1.08a61.39 61.39 0 0 1 13.84 3.7l-7.18-3a59 59 0 0 1 9.43 5c5.05 3.32-4.56-4.15-0.94-0.88 1.42 1.28 2.86 2.52 4.19 3.89 2.12 2.18 4.44 6.92 0-0.61 0.86 1.45 2 2.77 2.85 4.22 0.68 1.1 1.3 2.23 1.92 3.37 1.28 2.38 2.51 4.79 3.77 7.18l19.65 37.39 52.47 99.85 12.85 24.45c4.72 9 15.86 15.28 26 14.89 66.81-2.56 133.77-3.57 200.62-2.64q20.28 0.28 40.54 0.93c12.66 0.41 25.58 0.4 38.16 1.95l-8-1.07a77.5 77.5 0 0 1 18.26 4.89l-7.18-3a76.66 76.66 0 0 1 11.7 6.14c1.11 0.71 2.16 1.49 3.25 2.23 3.42 2.32-3.05-2.27-3-2.31 0.58-0.26 4.83 4.29 5.36 4.81 1.55 1.53 3 3.16 4.44 4.8 1.59 1.79 2.92 4.92-1.85-2.5 0.59 0.91 1.29 1.77 1.9 2.67a77 77 0 0 1 6.65 12.06l-3-7.18a77.56 77.56 0 0 1 5.35 19.38l-1.08-8c1.79 14.62 0.64 29.93 0.64 44.6v299.6c0 15 0.12 30 0 44.94a71.84 71.84 0 0 1-0.42 7.18l1.07-8A60.59 60.59 0 0 1 895.8 823l3-7.18a58.8 58.8 0 0 1-4.85 9.27c-4 6.1 4.09-4.52 0.84-0.85-1.15 1.3-2.27 2.61-3.49 3.83s-2.54 2.35-3.84 3.5c-3.67 3.25 7-4.81 0.85-0.85a59.7 59.7 0 0 1-9.27 4.86l7.19-3a60.85 60.85 0 0 1-14.21 3.71l8-1.08a66.18 66.18 0 0 1-6.89 0.42c-15.72 0.2-30.8 13.7-30.07 30.07 0.72 16.13 13.22 30.27 30.07 30.07 30.23-0.37 58.76-16.29 74.12-42.52 8.07-13.78 11.7-29.42 11.72-45.3V444.71v-13.18a108.5 108.5 0 0 0-12.35-50.37c-12.67-24.37-36.31-42.85-62.56-50.44-12.56-3.64-25.85-4-38.84-4.57-11.22-0.51-22.46-0.87-33.69-1.15-73.76-1.82-147.66-0.59-221.39 2l-4.07 0.15 26 14.89-43.73-83.2c-15-28.59-29.75-57.37-45.09-85.8s-45.48-44.7-77.25-44.7H171c-6.66 0-13.33-0.07-20 0a87 87 0 0 0-85.83 84.45c-0.36 13.59 0 27.22 0 40.81v551.76c0 17.14 3.25 34.13 12.39 48.94A87.52 87.52 0 0 0 152 895.7h721.15c15.72 0 30.79-13.83 30.06-30.07s-13.21-30.07-30.06-30.07z" p-id="3164"></path></svg>