<?xml version="1.0" standalone="no"?><!DOCTYPE svg PUBLIC "-//W3C//DTD SVG 1.1//EN" "http://www.w3.org/Graphics/SVG/1.1/DTD/svg11.dtd"><svg t="1594819164349" class="icon" viewBox="0 0 1137 1024" version="1.1" xmlns="http://www.w3.org/2000/svg" p-id="9219" xmlns:xlink="http://www.w3.org/1999/xlink" width="222.0703125" height="200"><defs><style type="text/css"></style></defs><path d="M259.697778 200.931556c-61.212444 0-110.933333 49.720889-110.933334 110.933333s49.720889 110.933333 110.933334 110.933333a110.933333 110.933333 0 0 0 0-221.866666z m0 137.614222a26.737778 26.737778 0 0 1-26.680889-26.680889 26.737778 26.737778 0 0 1 26.680889-26.680889 26.737778 26.737778 0 0 1 26.680889 26.680889 26.737778 26.737778 0 0 1-26.737778 26.680889zM1098.865778 554.666667l-478.663111-483.214223a56.149333 56.149333 0 0 0-40.220445-16.782222H96.881778C51.313778 54.613333 14.222222 91.306667 14.222222 136.533333v298.097778c0 14.961778 5.859556 29.013333 16.497778 39.651556l478.151111 472.405333a83.228444 83.228444 0 0 0 116.792889 0l37.774222-37.376 37.717334 37.376a83.228444 83.228444 0 0 0 116.792888 0l280.291556-276.935111a81.351111 81.351111 0 0 0 0.625778-115.086222z m-192.910222 115.086222c15.587556-15.246222 24.120889-35.612444 24.291555-57.344a80.782222 80.782222 0 0 0-23.608889-57.742222l-411.875555-415.857778h73.728l468.423111 473.031111-277.333334 274.033778-36.295111-35.726222 182.670223-180.394667zM98.474667 422.684444V138.808889h277.731555l468.309334 472.746667-186.823112 184.718222-48.355555 48.128-42.097778 41.472-468.764444-463.189334z" p-id="9220"></path></svg>